<?xml version="1.0" encoding="utf-8"?>
<svg version="1.1" xmlns:xlink="http://www.w3.org/1999/xlink" width="13px" height="13px" viewBox="10 358  13 13" xmlns="http://www.w3.org/2000/svg">
  <path d="M 16.5 358  C 20.14 358  23 360.86  23 364.5  C 23 368.14  20.14 371  16.5 371  C 12.86 371  10 368.14  10 364.5  C 10 360.86  12.86 358  16.5 358  Z " fill-rule="nonzero" fill="#ffffff" stroke="none" />
  <path d="M 16.5 358.5  C 19.86 358.5  22.5 361.14  22.5 364.5  C 22.5 367.86  19.86 370.5  16.5 370.5  C 13.14 370.5  10.5 367.86  10.5 364.5  C 10.5 361.14  13.14 358.5  16.5 358.5  Z " stroke-width="1" stroke="#797979" fill="none" />
  <path d="M 16.5 367.75  C 14.68 367.75  13.25 366.32  13.25 364.5  C 13.25 362.68  14.68 361.25  16.5 361.25  C 18.32 361.25  19.75 362.68  19.75 364.5  C 19.75 366.32  18.32 367.75  16.5 367.75  " fill-rule="nonzero" fill="#797979" stroke="none" />
</svg>