<?xml version="1.0" encoding="utf-8"?>
<svg version="1.1" xmlns:xlink="http://www.w3.org/1999/xlink" width="13px" height="13px" viewBox="10 390  13 13" xmlns="http://www.w3.org/2000/svg">
  <path d="M 16.5 390  C 20.14 390  23 392.86  23 396.5  C 23 400.14  20.14 403  16.5 403  C 12.86 403  10 400.14  10 396.5  C 10 392.86  12.86 390  16.5 390  Z " fill-rule="nonzero" fill="#ffffff" stroke="none" />
  <path d="M 16.5 390.5  C 19.86 390.5  22.5 393.14  22.5 396.5  C 22.5 399.86  19.86 402.5  16.5 402.5  C 13.14 402.5  10.5 399.86  10.5 396.5  C 10.5 393.14  13.14 390.5  16.5 390.5  Z " stroke-width="1" stroke="#797979" fill="none" />
  <path d="M 16.5 399.75  C 14.68 399.75  13.25 398.32  13.25 396.5  C 13.25 394.68  14.68 393.25  16.5 393.25  C 18.32 393.25  19.75 394.68  19.75 396.5  C 19.75 398.32  18.32 399.75  16.5 399.75  " fill-rule="nonzero" fill="#797979" stroke="none" />
</svg>